<svg xmlns="http://www.w3.org/2000/svg" width="62.642" height="90.327" viewBox="0 0 62.642 90.327">
  <g id="marker" transform="translate(-78.465)">
    <g id="Group_2" data-name="Group 2" transform="translate(97.171 18.22)">
      <g id="Group_1" data-name="Group 1">
        <path id="Path_1" data-name="Path 1" d="M197.11,103.278a12.615,12.615,0,1,0,12.615,12.615A12.629,12.629,0,0,0,197.11,103.278Z" transform="translate(-184.495 -103.278)" fill="#2c85ff"/>
      </g>
    </g>
    <g id="Group_4" data-name="Group 4" transform="translate(78.465)">
      <g id="Group_3" data-name="Group 3" transform="translate(0)">
        <path id="Path_2" data-name="Path 2" d="M109.786,0A31.356,31.356,0,0,0,78.465,31.321c0,7.064,4.955,18.707,14.729,34.6,7.145,11.623,14.392,21.432,14.464,21.529l2.128,2.874,2.128-2.874c.072-.1,7.319-9.907,14.464-21.529,9.773-15.9,14.729-27.539,14.729-34.6A31.356,31.356,0,0,0,109.786,0Zm0,48.746A17.911,17.911,0,1,1,127.7,30.836,17.931,17.931,0,0,1,109.786,48.746Z" transform="translate(-78.465)" fill="#2c85ff"/>
      </g>
    </g>
  </g>
</svg>
